<?xml version="1.0" encoding="UTF-8"?>
<svg width="68px" height="50px" viewBox="0 0 68 50" version="1.1" xmlns="http://www.w3.org/2000/svg" xmlns:xlink="http://www.w3.org/1999/xlink">
    <!-- Generator: Sketch 47.1 (45422) - http://www.bohemiancoding.com/sketch -->
    <title>Group 6 Copy 2</title>
    <desc>Created with Sketch.</desc>
    <defs></defs>
    <g id="MF_Desktop" stroke="none" stroke-width="1" fill="none" fill-rule="evenodd">
        <g id="Homepage_Opt1" transform="translate(-727.000000, -2008.000000)">
            <g id="Group-9" transform="translate(682.000000, 1978.000000)">
                <g id="Group-6-Copy-2" transform="translate(29.000000, 5.000000)">
                    <g id="Group-5">
                        <rect id="Rectangle-2-Copy-2" opacity="0.496546649" x="0" y="0" width="99.676274" height="99.676274"></rect>
                        <path d="M16,67.2684858 L68.6621187,67.2684858 L68.6621187,35.2642515 L16,35.2642515 L16,67.2684858 Z M17.9681644,65.515957 L66.697875,65.515957 L66.697875,37.020701 L17.9681644,37.020701 L17.9681644,65.515957 Z M50.411511,68.1153454 L33.9840038,68.1153454 L33.9840038,72.3418019 L29.6360072,72.3418019 L29.6360072,75 L53.6695679,75 L53.6695679,72.3418019 L50.411511,72.3418019 L50.411511,68.1153454 Z M60.7973026,25 L60.7973026,34.5546146 L69.3717557,34.5546146 L69.3717557,67.9820434 L60.7973026,67.9820434 L60.7973026,75 L83.7409237,75 L83.7409237,25 L60.7973026,25 Z M77.2248098,57.2551556 L80.3613267,57.2551556 L80.3613267,55.8005959 L77.2248098,55.8005959 L77.2248098,57.2551556 Z M77.2248098,54.1147181 L80.3613267,54.1147181 L80.3613267,52.6601584 L77.2248098,52.6601584 L77.2248098,54.1147181 Z M71.7868737,48.3082412 L80.3613267,48.3082412 L80.3613267,44.3248647 L71.7868737,44.3248647 L71.7868737,48.3082412 Z M71.7868737,38.1655297 L80.3613267,38.1655297 L80.3613267,34.1782326 L71.7868737,34.1782326 L71.7868737,38.1655297 Z" id="Fill-12" fill="#ED2527"></path>
                    </g>
                </g>
            </g>
        </g>
    </g>
</svg>