<?xml version="1.0" encoding="UTF-8"?>
<svg width="56px" height="57px" viewBox="0 0 56 57" version="1.1" xmlns="http://www.w3.org/2000/svg" xmlns:xlink="http://www.w3.org/1999/xlink">
    <!-- Generator: Sketch 47.1 (45422) - http://www.bohemiancoding.com/sketch -->
    <title>Group 7</title>
    <desc>Created with Sketch.</desc>
    <defs></defs>
    <g id="MF_Desktop" stroke="none" stroke-width="1" fill="none" fill-rule="evenodd">
        <g id="Homepage_Opt1" transform="translate(-891.000000, -2004.000000)">
            <g id="Group-12" transform="translate(840.000000, 1978.000000)">
                <g id="Group-7" transform="translate(29.000000, 5.000000)">
                    <rect id="Rectangle-2-Copy-3" opacity="0.495867301" x="0" y="0" width="99.3537902" height="99.3537902"></rect>
                    <path d="M26.0688954,46.4706981 C26.0688954,46.4706981 23.434371,48.2052747 23.9605501,52.0445679 C23.9605501,52.0445679 26.6749086,51.3659783 28.8558303,54.4541054 C31.0403809,57.5422324 32.3213548,60.6339884 30.1368043,60.4815779 C27.9522538,60.3291674 23.8916025,59.5780013 23.8916025,59.5780013 L23.8916025,61.3851544 L75.6567411,61.3851544 L75.6567411,59.5780013 C75.6567411,59.5780013 71.5924611,60.3291674 69.4115393,60.4815779 C67.2269888,60.6339884 68.504334,57.5422324 70.6888845,54.4541054 C72.873435,51.3659783 75.5841647,52.0445679 75.5841647,52.0445679 C76.1139726,48.2052747 73.4758194,46.4706981 73.4758194,46.4706981 C73.4758194,46.4706981 68.9579367,24.0990136 68.504334,22.4406421 C68.0543601,20.7858995 66.7733861,21.0108865 66.7733861,21.0108865 L32.7749575,21.0108865 C32.7749575,21.0108865 31.4939835,20.7858995 31.0403809,22.4406421 C30.5867782,24.0990136 26.0688954,46.4706981 26.0688954,46.4706981 L26.0688954,46.4706981 Z M32.7749575,59.1243986 L66.7733861,59.1243986 L66.7733861,57.7672194 L32.7749575,57.7672194 L32.7749575,59.1243986 Z M34.5059054,30.1990625 L65.0388094,30.1990625 C67.4483469,30.1990625 68.4281287,30.0502808 69.0305131,31.5562417 C69.6365263,33.0622026 72.1948454,46.8480955 72.1948454,46.8480955 L27.3498694,46.8480955 C27.3498694,46.8480955 29.9081886,33.0622026 30.5142017,31.5562417 C31.1165861,30.0502808 32.0963679,30.1990625 34.5059054,30.1990625 L34.5059054,30.1990625 Z M25.6044063,46.1767635 C26.0797819,43.8361737 30.1114026,23.8994284 30.5468611,22.3063757 C30.7065293,21.7257643 30.956918,21.3374804 31.2327084,21.0689476 L31.1891625,21 L25.0129084,21 C25.0129084,21 23.5069474,21.0108865 23.5069474,23.0430265 L23.5069474,43.8035143 L22.6505456,43.8035143 C22.6505456,43.8035143 22.0009865,43.8325448 22.0009865,45.2768158 L22.0009865,47.2254929 C22.0009865,47.2254929 21.9138948,47.7516721 23.3763099,47.7516721 L24.2617423,47.7516721 C24.755262,46.9279296 25.3177294,46.4017505 25.6044063,46.1767635 L25.6044063,46.1767635 Z M25.1943494,68.9512472 C24.6427686,68.345234 24.2581135,67.6158409 23.9823231,66.861046 L23.9823231,76.7604711 C23.9823231,76.7604711 24.2181965,77.9579822 25.1290306,77.9579822 L29.6251405,77.9579822 C29.6251405,77.9579822 30.6774987,77.7438817 30.6774987,76.9709427 L30.6774987,70.5297846 L28.9900967,70.5297846 C27.4224458,70.5297846 26.1451007,69.9999766 25.1943494,68.9512472 L25.1943494,68.9512472 Z M77.5437283,47.2254929 L77.5437283,45.2768158 C77.5437283,43.8325448 76.8941693,43.8035143 76.8941693,43.8035143 L76.0377674,43.8035143 L76.0377674,23.0430265 C76.0377674,21.0108865 74.5318065,21 74.5318065,21 L68.3555523,21 L68.3120064,21.0689476 C68.5877969,21.3374804 68.8418144,21.7257643 69.0014825,22.3063757 C69.4333123,23.8994284 73.4685618,43.8361737 73.9403086,46.1767635 C74.2269855,46.4017505 74.7930816,46.9279296 75.2829725,47.7516721 L76.168405,47.7516721 C77.63082,47.7516721 77.5437283,47.2254929 77.5437283,47.2254929 L77.5437283,47.2254929 Z M23.8916025,61.8750453 C23.8916025,61.8750453 23.0932618,70.0181207 28.9900967,70.0181207 L70.5546181,70.0181207 C76.451453,70.0181207 75.6567411,61.8750453 75.6567411,61.8750453 L23.8916025,61.8750453 Z M70.5546181,70.5297846 L68.8672161,70.5297846 L68.8672161,76.9709427 C68.8672161,77.7438817 69.9232032,77.9579822 69.9232032,77.9579822 L74.4156842,77.9579822 C75.3301472,77.9579822 75.5660206,76.7604711 75.5660206,76.7604711 L75.5660206,66.861046 C75.2902302,67.6158409 74.9019463,68.345234 74.3503654,68.9512472 C73.3996142,69.9999766 72.122269,70.5297846 70.5546181,70.5297846 L70.5546181,70.5297846 Z" id="Fill-15" fill="#ED2527"></path>
                </g>
            </g>
        </g>
    </g>
</svg>