<?xml version="1.0" encoding="UTF-8"?>
<svg width="61px" height="79px" viewBox="0 0 61 79" version="1.1" xmlns="http://www.w3.org/2000/svg" xmlns:xlink="http://www.w3.org/1999/xlink">
    <!-- Generator: Sketch 47.1 (45422) - http://www.bohemiancoding.com/sketch -->
    <title>Group 11</title>
    <desc>Created with Sketch.</desc>
    <defs></defs>
    <g id="MF_Desktop" stroke="none" stroke-width="1" fill="none" fill-rule="evenodd">
        <g id="Homepage_Opt1" transform="translate(-1204.000000, -1994.000000)">
            <g id="Group-14" transform="translate(1156.000000, 1978.000000)">
                <g id="Group-11" transform="translate(29.000000, 5.000000)">
                    <rect id="Rectangle-2-Copy-5" opacity="0.19678442" x="0" y="0" width="99.676274" height="99.676274"></rect>
                    <path d="M66.8555213,84.281174 L66.8555213,88.0715096 C66.8555213,88.9349765 68.0311335,89.1741527 68.0311335,89.1741527 L73.0538349,89.1741527 C74.0754013,89.1741527 74.3348468,87.8363872 74.3348468,87.8363872 L74.3348468,82.8501703 C73.2322037,83.9001135 72.1376682,84.2446895 71.971461,84.281174 L66.8555213,84.281174 Z M24.3834928,82.8501703 L24.3834928,87.8363872 C24.3834928,87.8363872 24.6429382,89.1741527 25.6645046,89.1741527 L30.6831523,89.1741527 C30.6831523,89.1741527 31.8628182,88.9349765 31.8628182,88.0715096 L31.8628182,84.281174 L26.7468785,84.281174 C26.5806713,84.2446895 25.4861359,83.9001135 24.3834928,82.8501703 L24.3834928,82.8501703 Z M66.9730825,17.2469596 C66.9730825,17.2469596 66.470407,13.3755473 62.100373,13.3755473 L49.4848387,13.3755473 L49.2294471,13.3755473 L36.6179666,13.3755473 C32.2438787,13.3755473 31.745257,17.2469596 31.745257,17.2469596 L31.745257,30.98946 L66.9730825,30.98946 L66.9730825,17.2469596 Z M49.2294471,42.482082 L49.4848387,42.482082 L64.0989136,42.482082 C66.5960759,42.482082 68.5986703,42.9847576 68.5986703,42.9847576 L68.5986703,35.2338252 C68.5986703,32.7366629 66.470407,31.9867034 66.470407,31.9867034 L32.2438787,31.9867034 C32.2438787,31.9867034 30.123723,32.7366629 30.123723,35.2338252 L30.123723,42.9847576 C30.123723,42.9847576 32.1222637,42.482082 34.619426,42.482082 L49.2294471,42.482082 Z M34.2424193,33.3650073 L49.2294471,33.3650073 L49.4848387,33.3650073 L64.4759202,33.3650073 C66.8514675,33.3650073 66.9730825,36.1094535 66.9730825,36.1094535 L31.745257,36.1094535 C31.745257,36.1094535 31.8668721,33.3650073 34.2424193,33.3650073 L34.2424193,33.3650073 Z M58.9140587,72.0912924 L49.4848387,72.0912924 L49.2294471,72.0912924 L39.8042808,72.0912924 C34.1208043,72.0912924 32.8681693,68.5928328 32.8681693,68.5928328 L22.4984595,68.5928328 L22.4984595,76.153235 C22.4984595,82.4610021 26.7468785,83.7095833 26.7468785,83.7095833 L71.971461,83.7095833 C71.971461,83.7095833 76.2158262,82.4610021 76.2158262,76.153235 L76.2158262,68.5928328 L65.8501703,68.5928328 C65.8501703,68.5928328 64.6015891,72.0912924 58.9140587,72.0912924 L58.9140587,72.0912924 Z M26.146911,75.0870764 C24.8010378,75.0870764 23.7105562,73.9965948 23.7105562,72.6507216 C23.7105562,71.3089022 24.8010378,70.2184206 26.146911,70.2184206 C27.4927842,70.2184206 28.5832658,71.3089022 28.5832658,72.6507216 C28.5832658,73.9965948 27.4927842,75.0870764 26.146911,75.0870764 L26.146911,75.0870764 Z M31.9560564,75.0870764 C30.6101832,75.0870764 29.5197016,73.9965948 29.5197016,72.6507216 C29.5197016,71.3089022 30.6101832,70.2184206 31.9560564,70.2184206 C33.3019296,70.2184206 34.3924112,71.3089022 34.3924112,72.6507216 C34.3924112,73.9965948 33.3019296,75.0870764 31.9560564,75.0870764 L31.9560564,75.0870764 Z M38.4908383,80.8354143 L60.2275012,80.8354143 L60.2275012,79.712502 L38.4908383,79.712502 L38.4908383,80.8354143 Z M38.4908383,75.7559591 L60.2275012,75.7559591 L60.2275012,73.5871575 L38.4908383,73.5871575 L38.4908383,75.7559591 Z M72.5714286,70.2184206 C73.9173018,70.2184206 75.0037295,71.3089022 75.0037295,72.6507216 C75.0037295,73.9965948 73.9173018,75.0870764 72.5714286,75.0870764 C71.2255554,75.0870764 70.1310199,73.9965948 70.1310199,72.6507216 C70.1310199,71.3089022 71.2255554,70.2184206 72.5714286,70.2184206 L72.5714286,70.2184206 Z M69.1986379,72.6507216 C69.1986379,73.9965948 68.1041025,75.0870764 66.7582293,75.0870764 C65.4164099,75.0870764 64.3259283,73.9965948 64.3259283,72.6507216 C64.3259283,71.3089022 65.4164099,70.2184206 66.7582293,70.2184206 C68.1041025,70.2184206 69.1986379,71.3089022 69.1986379,72.6507216 L69.1986379,72.6507216 Z M77.2171234,35.1122102 C75.8388195,35.1122102 74.7199611,36.2310686 74.7199611,37.6093725 L74.7199611,42.8550349 C74.7199611,43.7671477 75.2307443,44.5333225 75.9644884,44.9670829 C75.6401816,45.3278742 75.0118372,45.4089509 74.5334847,45.4089509 L71.971461,45.4089509 L71.971461,11 L69.2229609,11 L69.2229609,55.4705692 C69.0162153,55.4543538 68.8175774,55.4300308 68.5986703,55.4300308 L68.5986703,47.2291228 C68.5986703,47.2291228 69.8431977,43.7306632 63.3489541,43.7306632 L49.4848387,43.7306632 L49.2294471,43.7306632 L35.3693854,43.7306632 C28.871088,43.7306632 30.123723,47.2291228 30.123723,47.2291228 L30.123723,55.4300308 C29.9007621,55.4300308 29.7021242,55.4543538 29.4953786,55.4705692 L29.4953786,11 L26.7468785,11 L26.7468785,45.4089509 L24.1848549,45.4089509 C23.7105562,45.4089509 23.0781579,45.3278742 22.7538511,44.9670829 C23.4835414,44.5333225 23.9983785,43.7671477 23.9983785,42.8550349 L23.9983785,37.6093725 C23.9983785,36.2310686 22.87952,35.1122102 21.5012162,35.1122102 C20.1188584,35.1122102 19,36.2310686 19,37.6093725 L19,42.8550349 C19,43.9252473 19.6769904,44.8211448 20.621534,45.1778823 C20.7309875,45.5305659 20.8971947,45.8994649 21.1809632,46.239987 C21.8376844,47.026431 22.8470893,47.4277607 24.1848549,47.4277607 L26.7468785,47.4277607 L26.7468785,56.1718826 C23.3578725,57.8055781 22.4984595,61.5959137 22.4984595,61.5959137 L22.4984595,67.5915356 L33.7437976,67.5915356 C34.4937571,70.0886979 37.8665478,71.2075563 37.8665478,71.2075563 L60.8517918,71.2075563 C60.8517918,71.2075563 64.2245825,70.0886979 64.9745419,67.5915356 L76.2158262,67.5915356 L76.2158262,61.5959137 C76.2158262,61.5959137 75.3564132,57.8055781 71.971461,56.1718826 L71.971461,47.4277607 L74.5334847,47.4277607 C75.8712502,47.4277607 76.8806551,47.026431 77.5373764,46.239987 C77.8211448,45.8994649 77.987352,45.5305659 78.0968056,45.1778823 C79.0413491,44.8211448 79.7142857,43.9252473 79.7142857,42.8550349 L79.7142857,37.6093725 C79.7142857,36.2310686 78.5994811,35.1122102 77.2171234,35.1122102 L77.2171234,35.1122102 Z M58.1032917,69.5900762 L49.4848387,69.5900762 L49.2294471,69.5900762 L40.6150478,69.5900762 C36.2409599,69.5900762 36.3666288,67.3442517 36.3666288,67.3442517 L36.3666288,55.4300308 C36.3666288,51.3843036 39.2407978,51.3518729 39.2407978,51.3518729 L59.4775418,51.3518729 C59.4775418,51.3518729 62.3517107,51.3843036 62.3517107,55.4300308 L62.3517107,67.3442517 C62.3517107,67.3442517 62.4733258,69.5900762 58.1032917,69.5900762 L58.1032917,69.5900762 Z M66.7582293,74.0006486 C67.5041349,74.0006486 68.1122102,73.3966272 68.1122102,72.6507216 C68.1122102,71.9088698 67.5041349,71.3048484 66.7582293,71.3048484 C66.0163775,71.3048484 65.4123561,71.9088698 65.4123561,72.6507216 C65.4123561,73.3966272 66.0163775,74.0006486 66.7582293,74.0006486 L66.7582293,74.0006486 Z M72.5714286,74.0006486 C73.3132804,74.0006486 73.9173018,73.3966272 73.9173018,72.6507216 C73.9173018,71.9088698 73.3132804,71.3048484 72.5714286,71.3048484 C71.8255229,71.3048484 71.2174477,71.9088698 71.2174477,72.6507216 C71.2174477,73.3966272 71.8255229,74.0006486 72.5714286,74.0006486 L72.5714286,74.0006486 Z M26.146911,71.3048484 C25.4010054,71.3048484 24.7969839,71.9088698 24.7969839,72.6507216 C24.7969839,73.3966272 25.4010054,74.0006486 26.146911,74.0006486 C26.8887628,74.0006486 27.496838,73.3966272 27.496838,72.6507216 C27.496838,71.9088698 26.8887628,71.3048484 26.146911,71.3048484 L26.146911,71.3048484 Z M31.9560564,71.3048484 C31.2101508,71.3048484 30.6061294,71.9088698 30.6061294,72.6507216 C30.6061294,73.3966272 31.2101508,74.0006486 31.9560564,74.0006486 C32.7019621,74.0006486 33.3059835,73.3966272 33.3059835,72.6507216 C33.3059835,71.9088698 32.7019621,71.3048484 31.9560564,71.3048484 L31.9560564,71.3048484 Z" id="Fill-23" fill="#ED2527"></path>
                </g>
            </g>
        </g>
    </g>
</svg>