<?xml version="1.0" encoding="UTF-8"?>
<svg width="74px" height="43px" viewBox="0 0 74 43" version="1.1" xmlns="http://www.w3.org/2000/svg" xmlns:xlink="http://www.w3.org/1999/xlink">
    <!-- Generator: Sketch 47.1 (45422) - http://www.bohemiancoding.com/sketch -->
    <title>Group Copy 7</title>
    <desc>Created with Sketch.</desc>
    <defs></defs>
    <g id="MF_Desktop" stroke="none" stroke-width="1" fill="none" fill-rule="evenodd">
        <g id="Homepage_Opt1" transform="translate(-408.000000, -2012.000000)">
            <g id="Group-15" transform="translate(366.000000, 1978.000000)">
                <g id="Group-Copy-7" transform="translate(29.000000, 5.000000)">
                    <rect id="Rectangle-2" opacity="0.19678442" x="0" y="0" width="100" height="100"></rect>
                    <rect id="Rectangle-2" opacity="0.19678442" x="0" y="0" width="100" height="100"></rect>
                    <path d="M86.4619649,52.177721 C84.6006945,53.7819354 71.9932212,55.2392291 71.9932212,55.2392291 L71.852748,51.74093 C76.1488879,47.9487896 85.0299183,46.9282869 85.0299183,46.9282869 C84.6006945,45.6218846 84.0270954,44.4544612 84.0270954,44.4544612 C88.4676106,43.1401173 86.8911887,39.7887387 85.3147668,39.0581064 C83.7422469,38.3274742 78.7281327,38.768236 78.7281327,38.768236 L71.5639974,30.4572937 C64.0994055,29.4248786 52.2099065,29.0675041 50.1379262,29.0119125 L50.1379262,29 C50.1379262,29 50.0754937,29.0039708 49.9662367,29.0039708 C49.8530777,29.0039708 49.7906452,29 49.7906452,29 L49.7906452,29.0119125 C47.7225669,29.0675041 35.8291659,29.4248786 28.364574,30.4572937 L21.2043408,38.768236 C21.2043408,38.768236 16.1902265,38.3274742 14.6138046,39.0581064 C13.0373827,39.7887387 11.4609608,43.1401173 15.901476,44.4544612 C15.901476,44.4544612 15.331779,45.6218846 14.8986531,46.9282869 C14.8986531,46.9282869 23.7835856,47.9487896 28.0797255,51.74093 L27.9353502,55.2392291 C27.9353502,55.2392291 15.331779,53.7819354 13.4666065,52.177721 L13.4666065,69.6692168 C13.4666065,69.6692168 14.0402056,71.8571429 15.901476,71.8571429 L25.5004807,71.8571429 C25.5004807,71.8571429 27.790975,71.1304814 27.790975,70.1099787 L27.790975,67.775132 C27.790975,67.775132 36.9412457,68.9187304 49.7906452,68.9425554 L49.7906452,68.9425554 L50.1379262,68.9425554 L50.1379262,68.9425554 C62.9873257,68.9187304 72.1375965,67.775132 72.1375965,67.775132 L72.1375965,70.1099787 C72.1375965,71.1304814 74.4319927,71.8571429 74.4319927,71.8571429 L84.0270954,71.8571429 C85.8883659,71.8571429 86.4619649,69.6692168 86.4619649,69.6692168 L86.4619649,52.177721 Z M49.9662367,42.5564056 C47.9059625,42.5325806 26.2418673,42.3062435 21.0599655,43.1401173 L29.5117722,31.9185583 C29.5117722,31.9185583 39.571217,30.4731771 49.9662367,30.4612646 C60.3612565,30.4731771 70.4207013,31.9185583 70.4207013,31.9185583 L78.8686059,43.1401173 C73.6867041,42.3062435 52.0226089,42.5325806 49.9662367,42.5564056 L49.9662367,42.5564056 Z" id="Fill-3" fill="#ED2527"></path>
                </g>
            </g>
        </g>
    </g>
</svg>