<?xml version="1.0" encoding="UTF-8"?>
<svg width="53px" height="65px" viewBox="0 0 53 65" version="1.1" xmlns="http://www.w3.org/2000/svg" xmlns:xlink="http://www.w3.org/1999/xlink">
    <!-- Generator: Sketch 47.1 (45422) - http://www.bohemiancoding.com/sketch -->
    <title>Group 10</title>
    <desc>Created with Sketch.</desc>
    <defs></defs>
    <g id="MF_Desktop" stroke="none" stroke-width="1" fill="none" fill-rule="evenodd">
        <g id="Homepage_Opt1" transform="translate(-1050.000000, -2001.000000)">
            <g id="Group-13" transform="translate(998.000000, 1978.000000)">
                <g id="Group-10" transform="translate(29.000000, 5.000000)">
                    <rect id="Rectangle-2-Copy-4" opacity="0.49852808" x="0" y="0" width="99.3537902" height="99.3537902"></rect>
                    <path d="M34.5240179,18 L32.437123,18 L32.437123,23.3639065 L31.6409181,23.3639065 L31.6409181,46.0138398 L35.3202227,46.0138398 L35.3202227,23.3639065 L34.5240179,23.3639065 L34.5240179,18 Z M31.0500503,41.148609 L23,41.148609 L23,53.2132081 C24.0057325,51.02574 26.2015817,49.4961885 28.7620089,49.4961885 C32.2653104,49.4961885 35.1148857,52.3499544 35.1148857,55.8490653 L35.1148857,56.0502117 L35.3202227,56.0502117 L35.3202227,46.6088982 L31.0500503,46.6088982 L31.0500503,41.148609 Z M29.7509792,54.738569 C29.3277335,54.9397155 28.8290578,54.7595217 28.6237207,54.3404666 C28.4267648,53.9172208 28.602768,53.4185451 29.0260137,53.2132081 L32.5460774,51.5369873 C31.5319638,50.6485903 30.2161305,50.0912469 28.7620089,50.0912469 C28.7033412,50.0912469 28.648864,50.1038185 28.5901963,50.1038185 C28.9380121,50.3342989 29.0804909,50.7784974 28.8961066,51.1598376 C28.6949601,51.5830834 28.1920939,51.7590865 27.7730387,51.5621306 L26.1010084,50.7701163 C24.8103184,51.4489857 23.8129671,52.5930064 23.3310536,53.9968413 L28.4980042,56.4566953 C28.9170594,56.6578418 29.0972531,57.1565175 28.8961066,57.5797632 C28.6949601,58.003009 28.1920939,58.1790121 27.7730387,57.9778656 L23.0167622,55.7149676 C23.0125717,55.7610637 23,55.8029692 23,55.8490653 L23,60.2533354 L28.4980042,62.8724303 C28.9170594,63.0735768 29.0972531,63.5764431 28.8961066,63.9996888 C28.6949601,64.418744 28.1920939,64.5989377 27.7730387,64.3977912 L23,62.1265121 L23,66.673261 L28.4980042,69.2923559 C28.9170594,69.4935024 29.0972531,69.9963687 28.8961066,70.4154238 C28.6949601,70.8386696 28.1920939,71.0146728 27.7730387,70.8135263 L23,68.5464377 L23,73.088996 L28.4980042,75.708091 C28.9170594,75.9092375 29.0972531,76.4121037 28.8961066,76.8353494 C28.6949601,77.2544046 28.1920939,77.4345984 27.7730387,77.2334519 L23,74.9621727 L23,76.315721 C23,79.5005405 25.5771895,82.0777299 28.7620089,82.0777299 C31.2386251,82.0777299 33.3297106,80.5104635 34.1468682,78.3229954 L29.7509792,80.4098903 C29.3277335,80.6110368 28.8290578,80.4350336 28.6237207,80.0117878 C28.4267648,79.5885421 28.602768,79.0898664 29.0260137,78.8887199 L34.5240179,76.2696249 L34.5240179,71.7228761 L29.7509792,73.9941552 C29.3277335,74.1953017 28.8290578,74.015108 28.6237207,73.5960528 C28.4267648,73.172807 28.602768,72.6699408 29.0260137,72.4687943 L34.5240179,69.8496993 L34.5240179,65.3029505 L29.7509792,67.5742296 C29.3277335,67.7753761 28.8290578,67.5993729 28.6237207,67.1761272 C28.4267648,66.7528814 28.602768,66.2542058 29.0260137,66.0488687 L34.5240179,63.4339643 L34.5240179,58.8830249 L29.7509792,61.1584946 C29.3277335,61.3554505 28.8290578,61.1794473 28.6237207,60.7562016 C28.4267648,60.3371464 28.602768,59.8342802 29.0260137,59.6331337 L34.5240179,57.0140387 L34.5240179,55.8490653 C34.5240179,54.7553312 34.2013454,53.7454082 33.6733358,52.8737734 L29.7509792,54.738569 Z M35.9152811,46.2317485 L38.4631367,46.2317485 L38.4631367,44.4800978 L35.9152811,44.4800978 L35.9152811,46.2317485 Z M60.3545801,22.7269426 C60.5222022,22.8107536 60.7023959,22.8694214 60.9035424,22.8694214 L62.3953789,22.8694214 C63.0784389,22.8694214 63.6357823,22.312078 63.6357823,21.629018 C63.6357823,20.9417675 63.0784389,20.3844241 62.3953789,20.3844241 L60.9035424,20.3844241 C60.7023959,20.3844241 60.5222022,20.4430918 60.3545801,20.5227123 L60.3545801,19.4918365 L38.5972344,19.4918365 L38.5972344,20.5227123 C38.4296123,20.4430918 38.2494186,20.3844241 38.0524626,20.3844241 L36.5606261,20.3844241 C35.8775662,20.3844241 35.3202227,20.9417675 35.3202227,21.629018 C35.3202227,22.312078 35.8775662,22.8694214 36.5606261,22.8694214 L38.0524626,22.8694214 C38.2494186,22.8694214 38.4296123,22.8107536 38.5972344,22.7269426 L38.5972344,39.8537284 L35.9152811,39.8537284 L35.9152811,44.0275182 L63.0365334,44.0275182 L63.0365334,39.8537284 L60.3545801,39.8537284 L60.3545801,22.7269426 Z M39.292866,39.9543017 L59.6631391,39.9543017 L59.6631391,21.6248274 L39.292866,21.6248274 L39.292866,39.9543017 Z M71.794787,41.148609 L71.794787,39.8034418 L67.2103231,35.9062285 L63.0365334,35.9062285 L63.0365334,37.9931234 L66.4434521,37.9931234 L69.7078921,40.7672688 L69.7078921,41.148609 L67.9017642,41.148609 L67.9017642,46.6088982 L63.6357823,46.6088982 L63.6357823,56.0502117 L63.8369288,56.0502117 L63.8369288,55.8490653 C63.8369288,52.3499544 66.6865041,49.4961885 70.1898056,49.4961885 C72.7502328,49.4961885 74.946082,51.02574 75.9518145,53.2132081 L75.9518145,41.148609 L71.794787,41.148609 Z M71.1829664,57.9778656 C70.7597206,58.1790121 70.2568544,58.003009 70.0557079,57.5797632 C69.858752,57.1565175 70.0347551,56.6578418 70.4580009,56.4566953 L75.6207609,53.9968413 C75.143038,52.5930064 74.1456866,51.4489857 72.8466155,50.7701163 L71.1829664,51.5621306 C70.7597206,51.7590865 70.2568544,51.5830834 70.0557079,51.1598376 C69.8755142,50.7784974 70.0179929,50.3342989 70.3616182,50.1038185 C70.3029505,50.1038185 70.2484733,50.0912469 70.1898056,50.0912469 C68.735684,50.0912469 67.4198507,50.6485903 66.4057371,51.5369873 L69.9299913,53.2132081 C70.3490465,53.4185451 70.5292403,53.9172208 70.3280938,54.3404666 C70.1269473,54.7595217 69.624081,54.9397155 69.2008353,54.738569 L65.2826692,52.8737734 C64.7504691,53.7454082 64.4277966,54.7553312 64.4277966,55.8490653 L64.4277966,57.0140387 L69.9299913,59.6331337 C70.3490465,59.8342802 70.5292403,60.3371464 70.3280938,60.7562016 C70.1269473,61.1794473 69.624081,61.3554505 69.2008353,61.1584946 L64.4277966,58.8830249 L64.4277966,63.4339643 L69.9299913,66.0488687 C70.3490465,66.2542058 70.5292403,66.7528814 70.3280938,67.1761272 C70.1269473,67.5993729 69.624081,67.7753761 69.2008353,67.5742296 L64.4277966,65.3029505 L64.4277966,69.8496993 L69.9299913,72.4687943 C70.3490465,72.6699408 70.5292403,73.172807 70.3280938,73.5960528 C70.1269473,74.015108 69.624081,74.1953017 69.2008353,73.9941552 L64.4277966,71.7228761 L64.4277966,76.2696249 L69.9299913,78.8887199 C70.3490465,79.0898664 70.5292403,79.5885421 70.3280938,80.0117878 C70.1269473,80.4350336 69.624081,80.6110368 69.2008353,80.4098903 L64.8091369,78.3229954 C65.6262945,80.5104635 67.7173799,82.0777299 70.1898056,82.0777299 C73.3704345,82.0777299 75.9518145,79.5005405 75.9518145,76.315721 L75.9518145,74.9621727 L71.1829664,77.2334519 C70.7597206,77.4345984 70.2568544,77.2544046 70.0557079,76.8353494 C69.858752,76.4121037 70.0347551,75.9092375 70.4580009,75.708091 L75.9518145,73.088996 L75.9518145,68.5464377 L71.1829664,70.8135263 C70.7597206,71.0146728 70.2568544,70.8386696 70.0557079,70.4154238 C69.858752,69.9963687 70.0347551,69.4935024 70.4580009,69.2923559 L75.9518145,66.673261 L75.9518145,62.1265121 L71.1829664,64.3977912 C70.7597206,64.5989377 70.2568544,64.418744 70.0557079,63.9996888 C69.858752,63.5764431 70.0347551,63.0735768 70.4580009,62.8724303 L75.9518145,60.2533354 L75.9518145,55.8490653 C75.9518145,55.8029692 75.9392428,55.7610637 75.9392428,55.7149676 L71.1829664,57.9778656 Z M60.4886778,46.2317485 L63.0365334,46.2317485 L63.0365334,44.4800978 L60.4886778,44.4800978 L60.4886778,46.2317485 Z M39.0037179,46.2317485 L59.9480966,46.2317485 L59.9480966,44.4800978 L39.0037179,44.4800978 L39.0037179,46.2317485 Z M35.9152811,67.0085051 L63.0365334,67.0085051 L63.0365334,46.6047076 L35.9152811,46.6047076 L35.9152811,67.0085051 Z M39.0037179,50.3468705 L59.9480966,50.3468705 L59.9480966,48.5952198 L39.0037179,48.5952198 L39.0037179,50.3468705 Z M39.0037179,53.569405 L59.9480966,53.569405 L59.9480966,51.8177543 L39.0037179,51.8177543 L39.0037179,53.569405 Z M39.0037179,56.7835583 L59.9480966,56.7835583 L59.9480966,55.0360982 L39.0037179,55.0360982 L39.0037179,56.7835583 Z M39.0037179,60.0019022 L59.9480966,60.0019022 L59.9480966,58.2544421 L39.0037179,58.2544421 L39.0037179,60.0019022 Z M39.0037179,63.2244367 L59.9480966,63.2244367 L59.9480966,61.472786 L39.0037179,61.472786 L39.0037179,63.2244367 Z" id="Fill-19" fill="#ED2527"></path>
                </g>
            </g>
        </g>
    </g>
</svg>