<?xml version="1.0" encoding="UTF-8"?>
<svg width="34px" height="58px" viewBox="0 0 34 58" version="1.1" xmlns="http://www.w3.org/2000/svg" xmlns:xlink="http://www.w3.org/1999/xlink">
    <!-- Generator: Sketch 47.1 (45422) - http://www.bohemiancoding.com/sketch -->
    <title>Group 2</title>
    <desc>Created with Sketch.</desc>
    <defs></defs>
    <g id="MF_Desktop" stroke="none" stroke-width="1" fill="none" fill-rule="evenodd">
        <g id="Homepage_Opt1" transform="translate(-586.000000, -2004.000000)">
            <g id="Group-8" transform="translate(524.000000, 1978.000000)">
                <g id="Group-2" transform="translate(29.000000, 5.000000)">
                    <rect id="Rectangle-2-Copy" opacity="0.201687047" x="0" y="0" width="99.676274" height="99.676274"></rect>
                    <path d="M47.5019374,21 L52.4258312,21 L52.4258312,27.2083877 C60.3211877,27.9491126 64.2988375,32.1322815 64.7741003,40.2288754 L56.476269,40.6998566 C56.4077626,36.5851941 53.9800689,34.5599752 49.1203999,34.5599752 C45.0742438,34.5599752 42.5095374,36.3839567 42.5095374,39.2184068 C42.5095374,40.1603691 42.9162938,41.2393441 43.4557813,41.7788315 C44.7359937,43.1275503 45.5452249,43.4658003 53.9800689,45.8292693 C60.4582004,47.6489692 63.626619,49.8112008 65.1765751,53.5191068 C65.8530753,55.0733446 66.1913254,56.8245381 66.1913254,58.5800133 C66.1913254,66.2698508 61.3316564,71.0610135 52.4258312,72.1399884 L52.4258312,78.1428571 L47.5704438,78.1428571 L47.5704438,72.1399884 C38.6646186,71.6690073 33.3339684,66.4068635 33,57.9035131 L41.8373188,57.6337693 L41.8373188,58.4430006 C41.8373188,62.2236946 44.8045,64.5143756 49.7969001,64.5143756 C54.3140374,64.5143756 57.2169939,62.4934384 57.2169939,59.3892445 C57.2169939,57.3640256 56.0052878,55.9510822 53.5090878,54.9363319 C51.4838689,54.195607 48.9191625,53.3178695 45.9519813,52.4401319 C39.944831,50.7531631 37.0461562,48.8649569 35.3591873,45.6922566 C34.4172251,43.9410631 33.9419623,41.9158442 33.9419623,39.822119 C33.9419623,32.4705316 39.0028687,27.6793689 47.5019374,27.2083877 L47.5019374,21 Z" id="Fill-7" fill="#ED2527"></path>
                </g>
            </g>
        </g>
    </g>
</svg>