<?xml version="1.0" encoding="UTF-8"?>
<svg width="12px" height="20px" viewBox="0 0 12 20" version="1.1" xmlns="http://www.w3.org/2000/svg" xmlns:xlink="http://www.w3.org/1999/xlink">
    <!-- Generator: Sketch 46.2 (44496) - http://www.bohemiancoding.com/sketch -->
    <title>Page 1 Copy 2@2x</title>
    <desc>Created with Sketch.</desc>
    <defs></defs>
    <g id="Symbols" stroke="none" stroke-width="1" fill="none" fill-rule="evenodd">
        <g id="Sponsors-Banner" transform="translate(-270.000000, -274.000000)" fill="#808081">
            <path d="M282,284 C282,283.840383 281.917893,283.658819 281.794731,283.539106 L272.18611,274.199521 C272.060896,274.079808 271.876155,274 271.71194,274 C271.545672,274 271.360931,274.079808 271.237769,274.199521 L270.205269,275.201117 C270.082107,275.322825 270,275.502394 270,275.662011 C270,275.823623 270.082107,276.003192 270.205269,276.122905 L278.309271,284 L270.205269,291.877095 C270.082107,291.996808 270,292.176377 270,292.337989 C270,292.517558 270.082107,292.677175 270.205269,292.798883 L271.237769,293.800479 C271.360931,293.920192 271.545672,294 271.71194,294 C271.876155,294 272.060896,293.920192 272.18611,293.800479 L281.794731,284.460894 C281.917893,284.341181 282,284.159617 282,284" id="Page-1-Copy-2" transform="translate(276.000000, 284.000000) scale(-1, 1) translate(-276.000000, -284.000000) "></path>
        </g>
    </g>
</svg>