<?xml version="1.0" encoding="UTF-8"?>
<svg width="12px" height="20px" viewBox="0 0 12 20" version="1.1" xmlns="http://www.w3.org/2000/svg" xmlns:xlink="http://www.w3.org/1999/xlink">
    <!-- Generator: Sketch 46.2 (44496) - http://www.bohemiancoding.com/sketch -->
    <title>Page 1 Copy</title>
    <desc>Created with Sketch.</desc>
    <defs></defs>
    <g id="Symbols" stroke="none" stroke-width="1" fill="none" fill-rule="evenodd">
        <g id="Sponsors-Banner" transform="translate(-1398.000000, -274.000000)" fill="#808081">
            <path d="M1410,284 C1410,283.840383 1409.91789,283.658819 1409.79473,283.539106 L1400.18611,274.199521 C1400.0609,274.079808 1399.87615,274 1399.71194,274 C1399.54567,274 1399.36093,274.079808 1399.23777,274.199521 L1398.20527,275.201117 C1398.08211,275.322825 1398,275.502394 1398,275.662011 C1398,275.823623 1398.08211,276.003192 1398.20527,276.122905 L1406.30927,284 L1398.20527,291.877095 C1398.08211,291.996808 1398,292.176377 1398,292.337989 C1398,292.517558 1398.08211,292.677175 1398.20527,292.798883 L1399.23777,293.800479 C1399.36093,293.920192 1399.54567,294 1399.71194,294 C1399.87615,294 1400.0609,293.920192 1400.18611,293.800479 L1409.79473,284.460894 C1409.91789,284.341181 1410,284.159617 1410,284" id="Page-1-Copy"></path>
        </g>
    </g>
</svg>